<?xml version="1.0" encoding="UTF-8" standalone="no"?>
<svg
   version="1.1"
   id="Layer_1"
   x="0px"
   y="0px"
   width="100%"
   viewBox="0 0 127 128"
   enable-background="new 0 0 127 128"
   xml:space="preserve"
   sodipodi:docname="player-crown.svg"
   inkscape:version="1.3 (0e150ed6c4, 2023-07-21)"
   xmlns:inkscape="http://www.inkscape.org/namespaces/inkscape"
   xmlns:sodipodi="http://sodipodi.sourceforge.net/DTD/sodipodi-0.dtd"
   xmlns="http://www.w3.org/2000/svg"
   xmlns:svg="http://www.w3.org/2000/svg"><defs
   id="defs24" /><sodipodi:namedview
   id="namedview24"
   pagecolor="#ffffff"
   bordercolor="#000000"
   borderopacity="0.25"
   inkscape:showpageshadow="2"
   inkscape:pageopacity="0.0"
   inkscape:pagecheckerboard="0"
   inkscape:deskcolor="#d1d1d1"
   inkscape:zoom="4.5764649"
   inkscape:cx="31.902353"
   inkscape:cy="50.366387"
   inkscape:window-width="1600"
   inkscape:window-height="911"
   inkscape:window-x="-9"
   inkscape:window-y="-9"
   inkscape:window-maximized="1"
   inkscape:current-layer="Layer_1" />&#10;&#10;&#10;<path
   fill="#30302F"
   opacity="1.000000"
   stroke="none"
   d=" M28.333332,129.000000   C24.371180,122.091377 27.939829,116.132339 30.487617,110.029480   C34.580608,100.225319 42.224236,94.001366 51.935604,89.440277   C43.688690,84.482330 36.168915,79.135307 33.300888,70.275002   C30.228695,60.783955 30.159710,50.920776 35.174416,41.536549   C36.432365,44.595261 37.254017,47.672462 38.171921,51.118763   C38.257618,52.590439 38.326775,53.700508 38.223938,54.794411   C37.383579,63.733418 40.575062,71.567017 47.138050,76.988838   C54.414532,83.000099 63.215160,85.235741 73.079117,83.135551   C83.087166,81.004662 92.056213,72.386963 92.894096,62.389179   C93.204010,58.691254 93.039375,54.953560 93.259460,50.921188   C95.598442,49.695374 97.769119,48.782375 99.939804,47.869373   C101.903030,55.553654 102.443733,63.551872 98.667480,70.480713   C95.126091,76.978615 89.739883,82.471069 85.196129,88.366196   C88.563858,91.429138 92.878120,94.730713 96.422150,98.717064   C102.236191,105.256729 102.890358,113.755493 103.653107,121.967262   C103.769432,123.219612 101.357925,125.499161 99.745354,125.935547   C97.273727,126.604416 96.072983,124.884583 95.940140,122.114731   C95.279167,108.334045 88.598747,98.778038 75.315659,94.534149   C72.857971,93.748924 69.810211,94.801758 67.035736,95.018318   C51.322247,96.244804 39.310513,105.970779 34.876564,121.253494   C34.123734,123.848312 31.714052,125.962433 30.034920,128.649323   C29.555555,129.000000 29.111111,129.000000 28.333332,129.000000  z"
   id="path3" />&#10;<path
   fill="#F0A42F"
   opacity="1.000000"
   stroke="none"
   d=" M64.900208,4.953864   C66.487961,3.806593 68.075722,2.659323 69.331741,1.256026   C69.750000,1.000000 70.500000,1.000000 71.625000,1.000000   C73.884682,6.082432 75.827408,11.144644 77.610367,16.262514   C78.020012,17.438370 77.880753,18.805452 77.671837,20.502506   C76.862717,20.909798 76.375870,20.899118 75.743423,20.568581   C75.012993,17.925184 74.428146,15.601645 74.059265,13.009607   C73.984955,5.180071 72.477432,3.927866 64.900208,4.953864  z"
   id="path4" />&#10;<path
   fill="#FC9805"
   opacity="1.000000"
   stroke="none"
   d=" M75.889015,20.888439   C76.375870,20.899118 76.862717,20.909798 77.714844,20.924191   C78.080109,20.927900 78.010178,20.937952 78.229866,21.149899   C79.562424,21.013779 81.157936,21.017605 81.709877,20.260574   C85.306175,15.327972 88.676041,10.230280 92.119980,5.186596   C92.119980,5.186596 92.505081,5.045107 92.992966,5.021104   C93.670265,4.987176 93.859673,4.977252 94.049080,4.967329   C94.049080,4.967329 93.998619,4.995797 94.093246,5.295096   C94.918121,5.778921 95.648369,5.963447 96.378609,6.147973   C96.378609,6.147974 96.753670,6.256892 96.589691,6.833250   C95.920181,9.306585 95.414665,11.203563 94.639503,12.993972   C93.279449,14.111029 91.236679,15.344069 91.248672,16.556795   C91.348312,26.633810 91.827225,36.707077 92.111725,47.144463   C91.723534,48.698776 91.415115,49.890106 91.093437,51.074188   C91.080170,51.066948 91.065643,51.090042 90.596474,51.032593   C81.475487,51.015614 72.823669,51.056084 63.746628,51.054142   C55.852329,50.762157 50.440895,46.661865 45.357822,41.705772   C42.155170,38.583130 38.573330,35.849403 35.161587,32.941212   C34.781532,26.799648 34.222355,20.660719 34.131943,14.514894   C34.105251,12.700455 35.402569,10.866539 36.701942,8.912666   C37.588333,8.631070 37.829792,8.434069 38.035122,8.192780   C38.035122,8.192780 38.452065,8.043130 38.963108,8.023666   C39.667145,7.991830 39.860134,7.979456 40.053120,7.967083   C40.053120,7.967083 40.001537,7.996461 40.108414,8.205685   C40.497261,8.605709 40.779232,8.796511 41.061199,8.987312   C41.061199,8.987312 41.003239,8.998423 41.036144,9.276970   C41.405663,10.038263 41.742271,10.521010 42.078880,11.003758   C42.078880,11.003758 42.012852,10.991798 42.024223,11.294949   C42.075172,11.817017 42.114754,12.035936 42.051697,12.546984   C40.327194,15.488758 44.483604,24.960966 47.562855,25.345224   C47.892036,25.386303 48.422310,23.815935 49.103561,22.913921   C52.171139,25.752584 54.319294,25.181877 55.712944,21.505844   C56.269161,20.038702 56.554405,18.468828 56.962997,16.945719   C56.962997,16.945719 56.990002,17.002541 57.311661,16.945744   C60.073902,12.901401 62.514488,8.913854 64.955078,4.926308   C64.955078,4.926308 64.948570,4.980967 64.924393,4.967416   C72.477432,3.927866 73.984955,5.180071 73.866051,12.718831   C72.811516,11.568412 72.166161,10.440269 71.520805,9.312125   C70.913124,9.545165 70.305435,9.778205 69.697746,10.011246   C70.830399,13.518341 71.882538,17.056328 73.200806,20.492210   C73.359962,20.907021 74.957916,20.769804 75.889015,20.888439  z"
   id="path5" />&#10;<path
   fill="#F09F1E"
   opacity="1.000000"
   stroke="none"
   d=" M91.106705,51.081432   C91.415115,49.890106 91.723534,48.698776 92.480209,47.171635   C93.909225,45.275383 95.739380,43.710964 95.732079,42.155170   C95.686623,32.469219 95.229660,22.785198 94.909149,13.100538   C95.414665,11.203563 95.920181,9.306585 96.641205,7.021610   C97.568497,9.202727 98.779404,11.747683 98.905136,14.345166   C99.431541,25.219984 99.632568,36.110554 99.946304,47.432362   C97.769119,48.782375 95.598442,49.695374 92.927269,50.890015   C91.986755,51.141575 91.546730,51.111504 91.106705,51.081432  z"
   id="path6" />&#10;<path
   fill="#F09F1E"
   opacity="1.000000"
   stroke="none"
   d=" M91.728706,5.100629   C88.676041,10.230280 85.306175,15.327972 81.709877,20.260574   C81.157936,21.017605 79.562424,21.013779 78.227905,21.114628   C81.422096,16.335875 84.788094,11.765174 88.293198,7.303769   C89.051163,6.338998 90.309547,5.767375 91.728706,5.100629  z"
   id="path7" />&#10;<path
   fill="#F09F1E"
   opacity="1.000000"
   stroke="none"
   d=" M96.237396,5.895513   C95.648369,5.963447 94.918121,5.778921 94.106285,5.269214   C94.715187,5.177039 95.405693,5.410046 96.237396,5.895513  z"
   id="path8" />&#10;<path
   fill="#F09F1E"
   opacity="1.000000"
   stroke="none"
   d=" M93.974045,4.717296   C93.859673,4.977252 93.670265,4.987176 93.195923,4.991267   C93.240334,4.812711 93.569672,4.639987 93.974045,4.717296  z"
   id="path9" />&#10;<path
   fill="#EE8531"
   opacity="1.000000"
   stroke="none"
   d=" M35.084938,33.380005   C38.573330,35.849403 42.155170,38.583130 45.357822,41.705772   C50.440895,46.661865 55.852329,50.762157 63.724068,51.337662   C64.112045,52.043961 64.097359,52.424320 63.617416,52.897461   C54.793335,52.243385 46.434502,51.496525 38.075668,50.749664   C37.254017,47.672462 36.432365,44.595261 35.392471,41.216858   C35.118916,38.550034 35.063602,36.184418 35.084938,33.380005  z"
   id="path10" />&#10;<path
   fill="#F1A72D"
   opacity="1.000000"
   stroke="none"
   d=" M56.632927,17.059505   C56.554405,18.468828 56.269161,20.038702 55.712944,21.505844   C54.319294,25.181877 52.171139,25.752584 48.874271,22.675461   C47.199196,19.720842 45.997673,16.925497 44.875664,14.075717   C44.955185,14.021284 45.102020,13.896444 45.102020,13.896443   C47.646873,16.785440 50.191723,19.674438 52.810547,22.647417   C53.881058,20.969412 55.091957,19.071354 56.632927,17.059505  z"
   id="path11" />&#10;<path
   fill="#F0A42F"
   opacity="1.000000"
   stroke="none"
   d=" M64.631180,5.050471   C62.514488,8.913854 60.073902,12.901401 57.284378,16.930073   C59.392719,13.039010 61.849995,9.106823 64.631180,5.050471  z"
   id="path12" />&#10;<path
   fill="#F1A72D"
   opacity="1.000000"
   stroke="none"
   d=" M42.040176,10.685507   C41.742271,10.521010 41.405663,10.038263 41.050301,9.251081   C41.354858,9.420181 41.678162,9.893719 42.040176,10.685507  z"
   id="path13" />&#10;<path
   fill="#F1A72D"
   opacity="1.000000"
   stroke="none"
   d=" M42.154335,12.254855   C42.114754,12.035936 42.075172,11.817017 42.037098,11.263966   C42.333168,11.091318 42.627735,11.252804 42.924286,11.760630   C42.926273,12.106972 42.774498,12.312650 42.621201,12.283224   C42.467903,12.253799 42.154335,12.254855 42.154335,12.254855  z"
   id="path14" />&#10;<path
   fill="#F1A72D"
   opacity="1.000000"
   stroke="none"
   d=" M43.006805,12.007728   C43.371239,12.077274 43.655140,12.246065 43.973438,12.704300   C44.007839,12.993745 43.910194,13.092112 43.720177,12.962862   C43.283379,12.652551 43.031494,12.478896 42.774498,12.312650   C42.774498,12.312650 42.926273,12.106972 43.006805,12.007728  z"
   id="path15" />&#10;<path
   fill="#F1A72D"
   opacity="1.000000"
   stroke="none"
   d=" M44.057526,12.945434   C44.385319,13.071164 44.663429,13.245207 45.021782,13.657846   C45.102020,13.896444 44.955185,14.021284 44.723385,13.907074   C44.279026,13.574846 44.085228,13.341262 43.910194,13.092112   C43.910194,13.092112 44.007839,12.993745 44.057526,12.945434  z"
   id="path16" />&#10;<path
   fill="#F1A72D"
   opacity="1.000000"
   stroke="none"
   d=" M40.997459,8.719843   C40.779232,8.796511 40.497261,8.605709 40.112129,8.176236   C40.317219,8.109168 40.625469,8.280770 40.997459,8.719843  z"
   id="path17" />&#10;<path
   fill="#F1A72D"
   opacity="1.000000"
   stroke="none"
   d=" M37.765575,8.153776   C37.829792,8.434069 37.588333,8.631070 37.097172,8.880964   C37.087742,8.690353 37.291885,8.402563 37.765575,8.153776  z"
   id="path18" />&#10;<path
   fill="#F1A72D"
   opacity="1.000000"
   stroke="none"
   d=" M39.974457,7.717858   C39.860134,7.979456 39.667145,7.991830 39.183357,8.000257   C39.226971,7.820419 39.561382,7.644526 39.974457,7.717858  z"
   id="path19" />&#10;&#10;<path
   fill="#FFDC32"
   opacity="1.000000"
   stroke="none"
   d=" M75.743423,20.568581   C74.957916,20.769804 73.359962,20.907021 73.200806,20.492210   C71.882538,17.056328 70.830399,13.518341 69.697746,10.011246   C70.305435,9.778205 70.913124,9.545165 71.520805,9.312125   C72.166161,10.440269 72.811516,11.568412 73.650085,12.987331   C74.428146,15.601645 75.012993,17.925184 75.743423,20.568581  z"
   id="path21" />&#10;<path
   fill="#FFE338"
   opacity="1.000000"
   stroke="none"
   d=" M94.639496,12.993971   C95.229660,22.785198 95.686623,32.469219 95.732079,42.155170   C95.739380,43.710964 93.909225,45.275383 92.559998,46.808647   C91.827225,36.707077 91.348312,26.633810 91.248672,16.556795   C91.236679,15.344069 93.279449,14.111029 94.639496,12.993971  z"
   id="path22" />&#10;<path
   fill="#FCD939"
   opacity="1.000000"
   stroke="none"
   d=" M43.720177,12.962862   C44.085228,13.341262 44.279026,13.574846 44.643867,13.961507   C45.997673,16.925497 47.199196,19.720842 48.630013,22.754650   C48.422310,23.815935 47.892036,25.386303 47.562855,25.345224   C44.483604,24.960966 40.327194,15.488758 42.051697,12.546984   C42.154335,12.254855 42.467903,12.253799 42.621201,12.283224   C43.031494,12.478896 43.283379,12.652551 43.720177,12.962862  z"
   id="path23" />&#10;<path
   fill="#F7C380"
   opacity="1.000000"
   stroke="none"
   d=" M90.596474,51.032593   C88.734283,51.397961 86.411331,51.847248 84.069939,51.986603   C77.696892,52.365894 71.316040,52.614124 64.510475,52.859489   C64.097359,52.424320 64.112045,52.043961 64.149292,51.380074   C72.823669,51.056084 81.475487,51.015614 90.596474,51.032593  z"
   id="path24" />&#10;</svg>
