<?xml version="1.0" encoding="UTF-8" standalone="no"?>
<svg
   version="1.1"
   id="Layer_1"
   x="0px"
   y="0px"
   width="100%"
   viewBox="0 0 114 114"
   enable-background="new 0 0 114 114"
   xml:space="preserve"
   sodipodi:docname="player.svg"
   inkscape:version="1.3 (0e150ed6c4, 2023-07-21)"
   xmlns:inkscape="http://www.inkscape.org/namespaces/inkscape"
   xmlns:sodipodi="http://sodipodi.sourceforge.net/DTD/sodipodi-0.dtd"
   xmlns="http://www.w3.org/2000/svg"
   xmlns:svg="http://www.w3.org/2000/svg"><defs
   id="defs3" /><sodipodi:namedview
   id="namedview3"
   pagecolor="#ffffff"
   bordercolor="#000000"
   borderopacity="0.25"
   inkscape:showpageshadow="2"
   inkscape:pageopacity="0.0"
   inkscape:pagecheckerboard="0"
   inkscape:deskcolor="#d1d1d1"
   inkscape:zoom="6.8157895"
   inkscape:cx="56.926641"
   inkscape:cy="57"
   inkscape:window-width="1920"
   inkscape:window-height="991"
   inkscape:window-x="1911"
   inkscape:window-y="111"
   inkscape:window-maximized="1"
   inkscape:current-layer="Layer_1" />&#10;&#10;<path
   fill="#303030"
   opacity="1.000000"
   stroke="none"
   d=" M29.762028,101.758163   C28.668079,104.314919 28.101299,106.872826 26.637766,108.720367   C25.840336,109.727036 23.358778,110.080376 21.950598,109.664864   C21.117973,109.419182 20.289019,106.999977 20.494841,105.725563   C22.941263,90.577835 30.761559,79.268631 45.956791,72.380196   C32.229965,65.470695 25.012690,54.798714 25.064959,40.348839   C25.086134,34.494869 25.962881,27.342915 29.325375,23.015678   C49.428452,-2.855233 71.117439,3.793865 83.949974,15.662740   C97.960777,28.621393 102.984833,51.993435 78.451591,71.083771   C79.654266,72.038910 80.650139,73.072449 81.848969,73.743240   C90.882957,78.798119 94.889076,87.083038 96.802269,96.745918   C97.219040,98.850914 98.331940,101.118912 97.883896,103.019432   C97.302025,105.487679 95.912369,109.100456 94.095337,109.647858   C90.907600,110.608192 90.266479,107.433830 89.876099,104.516373   C88.879776,97.070488 87.322083,89.774765 81.421211,84.305473   C72.568314,76.100052 55.988163,76.520142 46.650894,82.006874   C38.585503,86.746223 33.731331,93.467491 29.762028,101.758163  M83.651123,26.950325   C74.557152,14.102912 56.003670,7.801006 43.358543,19.356382   C36.498890,25.624880 31.741476,32.850773 32.316513,41.963165   C32.989262,52.624023 39.204151,60.463493 49.078884,64.648544   C59.747684,69.170120 72.439392,67.464310 81.456314,57.652660   C87.652054,50.910847 89.665070,36.515106 83.651123,26.950325  z"
   id="path2" />&#10;&#10;</svg>
